<?xml version="1.0" standalone="no"?>
<!DOCTYPE svg PUBLIC "-//W3C//DTD SVG 20010904//EN"
 "http://www.w3.org/TR/2001/REC-SVG-20010904/DTD/svg10.dtd">
<svg version="1.0" xmlns="http://www.w3.org/2000/svg"
 width="1024.000000pt" height="1024.000000pt" viewBox="0 0 1024.000000 1024.000000"
 preserveAspectRatio="xMidYMid meet">
<metadata>
Created by potrace 1.14, written by Peter Selinger 2001-2017
</metadata>
<g transform="translate(0.000000,1024.000000) scale(0.100000,-0.100000)"
fill="#000000" stroke="none">
<path d="M0 5120 l0 -5120 5120 0 5120 0 0 5120 0 5120 -5120 0 -5120 0 0
-5120z m3381 2490 c365 -19 669 -68 1015 -165 193 -55 435 -143 441 -162 3 -8
-431 -1091 -442 -1101 -2 -3 -55 16 -116 43 -227 97 -475 166 -719 201 -179
26 -599 27 -720 1 -258 -54 -428 -145 -594 -317 -178 -185 -283 -399 -351
-715 -37 -174 -48 -295 -48 -520 0 -601 157 -1020 478 -1275 176 -140 430
-220 702 -220 164 0 522 35 578 57 13 4 15 65 15 414 l0 409 -467 2 -468 3 -3
548 -2 547 1135 0 1135 0 0 -1419 c0 -1343 -1 -1419 -17 -1424 -10 -2 -78 -23
-152 -46 -682 -208 -1669 -311 -2271 -237 -944 115 -1595 591 -1921 1405 -157
391 -229 902 -207 1469 48 1268 728 2143 1873 2412 224 52 401 77 633 89 222
12 271 12 493 1z m5343 -11 c337 -33 647 -102 931 -204 125 -45 331 -131 348
-145 7 -6 -412 -1102 -426 -1116 -2 -2 -44 14 -93 37 -407 188 -762 279 -1089
279 -252 0 -438 -60 -615 -198 -250 -196 -418 -565 -472 -1037 -26 -232 -13
-625 28 -851 66 -365 219 -642 438 -799 281 -200 728 -247 1231 -128 152 36
534 166 763 260 10 4 12 -116 10 -598 l-3 -602 -70 -29 c-586 -242 -1348 -321
-2010 -208 -621 105 -1106 411 -1426 898 -368 562 -523 1472 -393 2317 153
1001 729 1727 1589 2006 201 65 426 109 666 129 120 10 445 4 593 -11z"/>
</g>
</svg>
